{"title":"Crimson Peak 2015 BRRip x264 AAC-SSN","uid":13388786,"size":1692432213,"categoryP":"video","categoryS":"movies","magnet":"?xt=urn:btih:24ba62bd48faca40e1eb6f59a5d3ec95b9f2d2ad&amp;dn=Crimson+Peak+2015+BRRip+x264+AAC-SSN&amp;tr=udp%3A%2F%2Ftracker.leechers-paradise.org%3A6969&amp;tr=udp%3A%2F%2Fzer0day.ch%3A1337&amp;tr=udp%3A%2F%2Fopen.demonii.com%3A1337&amp;tr=udp%3A%2F%2Ftracker.coppersurfer.tk%3A6969&amp;tr=udp%3A%2F%2Fexodus.desync.com%3A6969","seeders":1,"leechers":0,"uploader":"somespirit","files":2,"time":1454314734,"description":"IMDB:  http://www.imdb.com/title/tt2554274/\r\n\r\n Source: Crimson.Peak.2015.720p.BluRay.DD5.1.x264-HiDt\r\n\r\n\r\n\r\n General\r\n Complete name                            : Crimson Peak 2015 BRRip x264 AAC-SSN.mkv\r\n Format                                   : Matroska\r\n Format version                           : Version 4 / Version 2\r\n File size                                : 1.58 GiB\r\n Duration                                 : 1h 58mn\r\n Overall bit rate                         : 1 901 Kbps\r\n Encoded date                             : UTC 2016-01-31 12:51:14\r\n Writing application                      : mkvmerge v8.6.1 ('Flying') 64bit\r\n Writing library                          : libebml v1.3.3 + libmatroska v1.4.4\r\n\r\n Video\r\n ID                                       : 1\r\n Format                                   : AVC\r\n Format/Info                              : Advanced Video Codec\r\n Format profile                           :   \r\n Format settings, CABAC                   : Yes\r\n Format settings, ReFrames                : 5 frames\r\n Codec ID                                 : V_MPEG4/ISO/AVC\r\n Duration                                 : 1h 58mn\r\n Bit rate                                 : 1 570 Kbps\r\n Width                                    : 900 pixels\r\n Height                                   : 486 pixels\r\n Display aspect ratio                     : 1.85:1\r\n Frame rate mode                          : Constant\r\n Frame rate                               : 23.976 (24000/1001) fps\r\n Color space                              : YUV\r\n Chroma subsampling                       : 4:2:0\r\n Bit depth                                : 8 bits\r\n Scan type                                : Progressive\r\n Bits/(Pixel*Frame)                       : 0.180\r\n Stream size                              : 1.30 GiB (83%)\r\n Writing library                          : x264 core 148 r2665 a01e339\r\n Language                                 : English\r\n Default                                  : Yes\r\n Forced                                   : No\r\n\r\n Audio\r\n ID                                       : 2\r\n Format                                   : AAC\r\n Format/Info                              : Advanced Audio Codec\r\n Format profile                           : LC\r\n Codec ID                                 : A_AAC\r\n Duration                                 : 1h 58mn\r\n Bit rate                                 : 329 Kbps\r\n Channel(s)                               : 6 channels\r\n Channel positions                        : Front: L C R, Side: L R, LFE\r\n Sampling rate                            : 32.0 KHz\r\n Frame rate                               : 31.250 fps (1024 spf)\r\n Compression mode                         : Lossy\r\n Stream size                              : 280 MiB (17%)\r\n Default                                  : Yes\r\n Forced                                   : No\r\n\r\n \nhttp://lookpic.com/O/i2/908/MeASdJhK.png\r\n \nhttp://lookpic.com/O/i2/307/LvnTZyRH.png\r\n \nhttp://lookpic.com/O/i2/1175/XPak0bgE.png","torrent":{"xt":"urn:btih:24ba62bd48faca40e1eb6f59a5d3ec95b9f2d2ad","amp;dn":"Crimson+Peak+2015+BRRip+x264+AAC-SSN","amp;tr":["udp%3A%2F%2Ftracker.leechers-paradise.org%3A6969","udp%3A%2F%2Fzer0day.ch%3A1337","udp%3A%2F%2Fopen.demonii.com%3A1337","udp%3A%2F%2Ftracker.coppersurfer.tk%3A6969","udp%3A%2F%2Fexodus.desync.com%3A6969"],"infoHash":"24ba62bd48faca40e1eb6f59a5d3ec95b9f2d2ad","infoHashBuffer":{"type":"Buffer","data":[36,186,98,189,72,250,202,64,225,235,111,89,165,211,236,149,185,242,210,173]},"announce":[],"urlList":[]}}